<svg xmlns="http://www.w3.org/2000/svg" viewBox="0 0 64 64" width="64" height="64">
  <!-- Left page -->
  <path d="M32 16 C32 16 18 14 6 18 L6 50 C18 46 32 48 32 48 Z" fill="#c8a96e" stroke="#8b6914" stroke-width="1.5" stroke-linejoin="round"/>
  <!-- Right page -->
  <path d="M32 16 C32 16 46 14 58 18 L58 50 C46 46 32 48 32 48 Z" fill="#d4b97e" stroke="#8b6914" stroke-width="1.5" stroke-linejoin="round"/>
  <!-- Spine -->
  <line x1="32" y1="16" x2="32" y2="48" stroke="#6b4f12" stroke-width="2.5" stroke-linecap="round"/>
  <!-- Left page lines -->
  <line x1="12" y1="26" x2="28" y2="25" stroke="#8b6914" stroke-width="1.2" stroke-linecap="round" opacity="0.6"/>
  <line x1="12" y1="32" x2="28" y2="31" stroke="#8b6914" stroke-width="1.2" stroke-linecap="round" opacity="0.6"/>
  <line x1="12" y1="38" x2="28" y2="37" stroke="#8b6914" stroke-width="1.2" stroke-linecap="round" opacity="0.6"/>
  <!-- Right page lines -->
  <line x1="36" y1="25" x2="52" y2="26" stroke="#8b6914" stroke-width="1.2" stroke-linecap="round" opacity="0.6"/>
  <line x1="36" y1="31" x2="52" y2="32" stroke="#8b6914" stroke-width="1.2" stroke-linecap="round" opacity="0.6"/>
  <line x1="36" y1="37" x2="52" y2="38" stroke="#8b6914" stroke-width="1.2" stroke-linecap="round" opacity="0.6"/>
</svg>
